<svg xmlns="http://www.w3.org/2000/svg" viewBox="0 0 960 440" font-family="system-ui,-apple-system,Segoe UI,sans-serif">
  <rect width="960" height="440" fill="#FFFAF5" rx="12"/>

  <!-- AppShell root -->
  <rect x="280" y="14" width="400" height="36" rx="8" fill="#EDE3D6" stroke="#A1887F" stroke-width="2"/>
  <text x="480" y="37" text-anchor="middle" font-size="14" font-weight="700" fill="#3E2723">AppShell</text>
  <text x="700" y="37" font-size="9" fill="#6D4C41">Layout wrapper · role-aware sidebar navigation</text>

  <!-- Branch lines -->
  <line x1="480" y1="50" x2="480" y2="66" stroke="#A1887F" stroke-width="1.5"/>
  <line x1="160" y1="66" x2="800" y2="66" stroke="#A1887F" stroke-width="1.5"/>
  <line x1="160" y1="66" x2="160" y2="82" stroke="#A1887F" stroke-width="1.5"/>
  <line x1="480" y1="66" x2="480" y2="82" stroke="#A1887F" stroke-width="1.5"/>
  <line x1="800" y1="66" x2="800" y2="82" stroke="#A1887F" stroke-width="1.5"/>

  <!-- OWNER Column -->
  <rect x="20" y="82" width="280" height="26" rx="6" fill="#A1887F"/>
  <text x="160" y="100" text-anchor="middle" font-size="12" font-weight="700" fill="#fff">Owner pages</text>

  <rect x="20" y="116" width="280" height="60" rx="8" fill="#F5EDE4" stroke="#C4B5A4" stroke-width="1.5"/>
  <text x="30" y="134" font-size="11" font-weight="700" fill="#3E2723">📂 /owner/pets</text>
  <rect x="30" y="142" width="56" height="16" rx="6" fill="#D7C9B8"/><text x="58" y="154" text-anchor="middle" font-size="9" font-weight="600" fill="#3E2723">PetCard</text>
  <rect x="92" y="142" width="62" height="16" rx="6" fill="#E8DDD0"/><text x="123" y="154" text-anchor="middle" font-size="9" font-weight="500" fill="#5D4037">inline edit</text>
  <rect x="160" y="142" width="46" height="16" rx="6" fill="#E8DDD0"/><text x="183" y="154" text-anchor="middle" font-size="9" font-weight="500" fill="#5D4037">delete</text>

  <rect x="20" y="184" width="280" height="60" rx="8" fill="#F5EDE4" stroke="#C4B5A4" stroke-width="1.5"/>
  <text x="30" y="202" font-size="11" font-weight="700" fill="#3E2723">📂 /owner/jobs</text>
  <rect x="30" y="210" width="76" height="16" rx="6" fill="#D7C9B8"/><text x="68" y="222" text-anchor="middle" font-size="9" font-weight="600" fill="#3E2723">NewJobForm</text>
  <rect x="112" y="210" width="100" height="16" rx="6" fill="#D7C9B8"/><text x="162" y="222" text-anchor="middle" font-size="9" font-weight="600" fill="#3E2723">SitterProfileModal</text>
  <rect x="218" y="210" width="72" height="16" rx="6" fill="#D7C9B8"/><text x="254" y="222" text-anchor="middle" font-size="9" font-weight="600" fill="#3E2723">RateJobForm</text>

  <!-- SITTER Column -->
  <rect x="340" y="82" width="280" height="26" rx="6" fill="#8D6E63"/>
  <text x="480" y="100" text-anchor="middle" font-size="12" font-weight="700" fill="#fff">Sitter pages</text>

  <rect x="340" y="116" width="280" height="52" rx="8" fill="#F5EDE4" stroke="#C4B5A4" stroke-width="1.5"/>
  <text x="350" y="134" font-size="11" font-weight="700" fill="#3E2723">📂 /sitter/jobs</text>
  <rect x="350" y="140" width="102" height="16" rx="6" fill="#D7C9B8"/><text x="401" y="152" text-anchor="middle" font-size="9" font-weight="600" fill="#3E2723">VerificationBanner</text>
  <rect x="458" y="140" width="60" height="16" rx="6" fill="#E8DDD0"/><text x="488" y="152" text-anchor="middle" font-size="9" font-weight="500" fill="#5D4037">apply form</text>
  <rect x="524" y="140" width="74" height="16" rx="6" fill="#E8DDD0"/><text x="561" y="152" text-anchor="middle" font-size="9" font-weight="500" fill="#5D4037">withdraw form</text>

  <rect x="340" y="176" width="280" height="44" rx="8" fill="#F5EDE4" stroke="#C4B5A4" stroke-width="1.5"/>
  <text x="350" y="194" font-size="11" font-weight="700" fill="#3E2723">📂 /sitter/assignments</text>
  <rect x="350" y="200" width="86" height="16" rx="6" fill="#D7C9B8"/><text x="393" y="212" text-anchor="middle" font-size="9" font-weight="600" fill="#3E2723">WorkProofForm</text>

  <rect x="340" y="228" width="280" height="52" rx="8" fill="#F5EDE4" stroke="#C4B5A4" stroke-width="1.5"/>
  <text x="350" y="246" font-size="11" font-weight="700" fill="#3E2723">📂 /sitter/profile</text>
  <rect x="350" y="252" width="76" height="16" rx="6" fill="#D7C9B8"/><text x="388" y="264" text-anchor="middle" font-size="9" font-weight="600" fill="#3E2723">ProfileEditor</text>
  <rect x="432" y="252" width="102" height="16" rx="6" fill="#D7C9B8"/><text x="483" y="264" text-anchor="middle" font-size="9" font-weight="600" fill="#3E2723">VerificationSubmit</text>

  <!-- ADMIN Column -->
  <rect x="660" y="82" width="280" height="26" rx="6" fill="#6D4C41"/>
  <text x="800" y="100" text-anchor="middle" font-size="12" font-weight="700" fill="#fff">Admin pages</text>

  <rect x="660" y="116" width="280" height="52" rx="8" fill="#F5EDE4" stroke="#C4B5A4" stroke-width="1.5"/>
  <text x="670" y="134" font-size="11" font-weight="700" fill="#3E2723">📂 /admin/verifications</text>
  <rect x="670" y="140" width="76" height="16" rx="6" fill="#D7C9B8"/><text x="708" y="152" text-anchor="middle" font-size="9" font-weight="600" fill="#3E2723">approve form</text>
  <rect x="752" y="140" width="66" height="16" rx="6" fill="#D7C9B8"/><text x="785" y="152" text-anchor="middle" font-size="9" font-weight="600" fill="#3E2723">reject form</text>

  <rect x="660" y="176" width="280" height="52" rx="8" fill="#F5EDE4" stroke="#C4B5A4" stroke-width="1.5"/>
  <text x="670" y="194" font-size="11" font-weight="700" fill="#3E2723">📂 /admin/jobs</text>
  <rect x="670" y="200" width="68" height="16" rx="6" fill="#D7C9B8"/><text x="704" y="212" text-anchor="middle" font-size="9" font-weight="600" fill="#3E2723">cancel form</text>
  <rect x="744" y="200" width="72" height="16" rx="6" fill="#D7C9B8"/><text x="780" y="212" text-anchor="middle" font-size="9" font-weight="600" fill="#3E2723">remove form</text>

  <rect x="660" y="236" width="280" height="52" rx="8" fill="#F5EDE4" stroke="#C4B5A4" stroke-width="1.5"/>
  <text x="670" y="254" font-size="11" font-weight="700" fill="#3E2723">📂 /admin/sitters</text>
  <rect x="670" y="260" width="66" height="16" rx="6" fill="#D7C9B8"/><text x="703" y="272" text-anchor="middle" font-size="9" font-weight="600" fill="#3E2723">ban control</text>
  <rect x="742" y="260" width="72" height="16" rx="6" fill="#D7C9B8"/><text x="778" y="272" text-anchor="middle" font-size="9" font-weight="600" fill="#3E2723">unban control</text>

  <!-- Shared UI -->
  <rect x="100" y="320" width="760" height="40" rx="8" fill="#EDE3D6" stroke="#C4B5A4" stroke-width="1.5"/>
  <text x="120" y="344" font-size="10" font-weight="700" fill="#6D4C41">Shared UI:</text>
  <rect x="186" y="332" width="48" height="16" rx="6" fill="#D7C9B8"/><text x="210" y="344" text-anchor="middle" font-size="9" font-weight="600" fill="#3E2723">Button</text>
  <rect x="240" y="332" width="38" height="16" rx="6" fill="#D7C9B8"/><text x="259" y="344" text-anchor="middle" font-size="9" font-weight="600" fill="#3E2723">Card</text>
  <rect x="284" y="332" width="44" height="16" rx="6" fill="#D7C9B8"/><text x="306" y="344" text-anchor="middle" font-size="9" font-weight="600" fill="#3E2723">Badge</text>
  <rect x="334" y="332" width="38" height="16" rx="6" fill="#D7C9B8"/><text x="353" y="344" text-anchor="middle" font-size="9" font-weight="600" fill="#3E2723">Input</text>
  <rect x="378" y="332" width="52" height="16" rx="6" fill="#D7C9B8"/><text x="404" y="344" text-anchor="middle" font-size="9" font-weight="600" fill="#3E2723">Select</text>
  <rect x="436" y="332" width="62" height="16" rx="6" fill="#D7C9B8"/><text x="467" y="344" text-anchor="middle" font-size="9" font-weight="600" fill="#3E2723">StarRating</text>
  <rect x="504" y="332" width="86" height="16" rx="6" fill="#D7C9B8"/><text x="547" y="344" text-anchor="middle" font-size="9" font-weight="600" fill="#3E2723">JobStatusBadge</text>
  <rect x="596" y="332" width="72" height="16" rx="6" fill="#D7C9B8"/><text x="632" y="344" text-anchor="middle" font-size="9" font-weight="600" fill="#3E2723">PageHeader</text>
</svg>
